<svg xmlns="http://www.w3.org/2000/svg" xml:space="preserve" style="fill-rule:evenodd;clip-rule:evenodd;stroke-linejoin:round;stroke-miterlimit:2" viewBox="0 0 512 512"><path d="M512,128L512,384C512,454.645 454.645,512 384,512L128,512C57.355,512 0,454.645 0,384L0,128C0,57.355 57.355,0 128,0L384,0C454.645,0 512,57.355 512,128Z" style="fill:#fff"/><path d="M1,4L0,4L0,3L1,3L1,1L2,1L2,0L6,0L6,1L7,1L7,3L8,3L8,4L7,4L7,5L6,5L6,7L5,7L5,5L3,5L3,7L2,7L2,5L1,5L1,4ZM2,2L2,3L3,3L3,4L5,4L5,3L6,3L6,2L5,2L5,3L3,3L3,2L2,2Z" transform="translate(97 131.875)scale(39.75)"/></svg>